<?xml version="1.0" encoding="UTF-8" standalone="no"?>
<!DOCTYPE svg PUBLIC "-//W3C//DTD SVG 1.1//EN" "http://www.w3.org/Graphics/SVG/1.1/DTD/svg11.dtd">
<svg width="100%" height="100%" viewBox="0 0 1200 1200" version="1.1" xmlns="http://www.w3.org/2000/svg" xmlns:xlink="http://www.w3.org/1999/xlink" xml:space="preserve" xmlns:serif="http://www.serif.com/" style="fill-rule:evenodd;clip-rule:evenodd;stroke-linecap:round;stroke-linejoin:round;stroke-miterlimit:1.5;">
    <g id="Logo-gesamt" serif:id="Logo gesamt" transform="matrix(1,0,0,1,21.0052,0)">
        <g id="Objektiv">
            <g transform="matrix(1.12813,0,0,1.15862,-1.44518,18.6057)">
                <path d="M781.392,501.056C781.392,500.473 780.906,500 780.307,500L765.224,500C764.626,500 764.14,500.473 764.14,501.056L764.14,504.287C764.14,504.87 764.626,505.343 765.224,505.343L780.307,505.343C780.906,505.343 781.392,504.87 781.392,504.287L781.392,501.056Z" style="fill:white;"/>
            </g>
            <g transform="matrix(0.804126,0,0,0.797571,229.253,179.012)">
                <path d="M781.392,501.056C781.392,500.473 780.922,500 780.344,500L765.187,500C764.609,500 764.14,500.473 764.14,501.056L764.14,504.287C764.14,504.87 764.609,505.343 765.187,505.343L780.344,505.343C780.922,505.343 781.392,504.87 781.392,504.287L781.392,501.056Z" style="fill:white;"/>
            </g>
            <g transform="matrix(0.804126,0,0,0.797571,229.253,238.247)">
                <path d="M781.392,501.056C781.392,500.473 780.922,500 780.344,500L765.187,500C764.609,500 764.14,500.473 764.14,501.056L764.14,504.287C764.14,504.87 764.609,505.343 765.187,505.343L780.344,505.343C780.922,505.343 781.392,504.87 781.392,504.287L781.392,501.056Z" style="fill:white;"/>
            </g>
            <g transform="matrix(0.804126,0,0,0.797571,228.612,293.704)">
                <path d="M781.392,501.056C781.392,500.473 780.922,500 780.344,500L765.187,500C764.609,500 764.14,500.473 764.14,501.056L764.14,504.287C764.14,504.87 764.609,505.343 765.187,505.343L780.344,505.343C780.922,505.343 781.392,504.87 781.392,504.287L781.392,501.056Z" style="fill:white;"/>
            </g>
            <g transform="matrix(0.804126,0,0,0.797571,227.451,345.155)">
                <path d="M781.392,501.056C781.392,500.473 780.922,500 780.344,500L765.187,500C764.609,500 764.14,500.473 764.14,501.056L764.14,504.287C764.14,504.87 764.609,505.343 765.187,505.343L780.344,505.343C780.922,505.343 781.392,504.87 781.392,504.287L781.392,501.056Z" style="fill:white;"/>
            </g>
            <g transform="matrix(0.804126,0,0,0.632967,226.132,472.9)">
                <path d="M781.392,501.056C781.392,500.473 781.019,500 780.56,500L764.971,500C764.512,500 764.14,500.473 764.14,501.056L764.14,504.287C764.14,504.87 764.512,505.343 764.971,505.343L780.56,505.343C781.019,505.343 781.392,504.87 781.392,504.287L781.392,501.056Z" style="fill:white;"/>
            </g>
            <g transform="matrix(0.804126,0,0,0.632967,224.226,511.306)">
                <path d="M781.392,501.056C781.392,500.473 781.019,500 780.56,500L764.971,500C764.512,500 764.14,500.473 764.14,501.056L764.14,504.287C764.14,504.87 764.512,505.343 764.971,505.343L780.56,505.343C781.019,505.343 781.392,504.87 781.392,504.287L781.392,501.056Z" style="fill:white;"/>
            </g>
            <g transform="matrix(0.804126,0,0,0.386062,222.76,662.611)">
                <path d="M781.392,501.056C781.392,500.473 781.165,500 780.885,500L764.647,500C764.367,500 764.14,500.473 764.14,501.056L764.14,504.287C764.14,504.87 764.367,505.343 764.647,505.343L780.885,505.343C781.165,505.343 781.392,504.87 781.392,504.287L781.392,501.056Z" style="fill:white;"/>
            </g>
            <g transform="matrix(0.804126,0,0,0.386062,222.027,680.495)">
                <path d="M781.392,501.056C781.392,500.473 781.165,500 780.885,500L764.647,500C764.367,500 764.14,500.473 764.14,501.056L764.14,504.287C764.14,504.87 764.367,505.343 764.647,505.343L780.885,505.343C781.165,505.343 781.392,504.87 781.392,504.287L781.392,501.056Z" style="fill:white;"/>
            </g>
            <g transform="matrix(0.49669,0,0,0.797571,469.481,219.113)">
                <path d="M781.392,501.056C781.392,500.473 780.632,500 779.696,500L765.835,500C764.899,500 764.14,500.473 764.14,501.056L764.14,504.287C764.14,504.87 764.899,505.343 765.835,505.343L779.696,505.343C780.632,505.343 781.392,504.87 781.392,504.287L781.392,501.056Z" style="fill:white;"/>
            </g>
            <g transform="matrix(0.49669,0,0,0.797571,469.136,257.327)">
                <path d="M781.392,501.056C781.392,500.473 780.632,500 779.696,500L765.835,500C764.899,500 764.14,500.473 764.14,501.056L764.14,504.287C764.14,504.87 764.899,505.343 765.835,505.343L779.696,505.343C780.632,505.343 781.392,504.87 781.392,504.287L781.392,501.056Z" style="fill:white;"/>
            </g>
            <g transform="matrix(0.49669,0,0,0.797571,469.136,275.035)">
                <path d="M781.392,501.056C781.392,500.473 780.632,500 779.696,500L765.835,500C764.899,500 764.14,500.473 764.14,501.056L764.14,504.287C764.14,504.87 764.899,505.343 765.835,505.343L779.696,505.343C780.632,505.343 781.392,504.87 781.392,504.287L781.392,501.056Z" style="fill:white;"/>
            </g>
            <g transform="matrix(0.49669,0,0,0.797571,468.335,311.258)">
                <path d="M781.392,501.056C781.392,500.473 780.632,500 779.696,500L765.835,500C764.899,500 764.14,500.473 764.14,501.056L764.14,504.287C764.14,504.87 764.899,505.343 765.835,505.343L779.696,505.343C780.632,505.343 781.392,504.87 781.392,504.287L781.392,501.056Z" style="fill:white;"/>
            </g>
            <g transform="matrix(0.49669,0,0,0.797571,468.014,328.889)">
                <path d="M781.392,501.056C781.392,500.473 780.632,500 779.696,500L765.835,500C764.899,500 764.14,500.473 764.14,501.056L764.14,504.287C764.14,504.87 764.899,505.343 765.835,505.343L779.696,505.343C780.632,505.343 781.392,504.87 781.392,504.287L781.392,501.056Z" style="fill:white;"/>
            </g>
            <g transform="matrix(0.49669,0,0,0.797571,467.135,360.993)">
                <path d="M781.392,501.056C781.392,500.473 780.632,500 779.696,500L765.835,500C764.899,500 764.14,500.473 764.14,501.056L764.14,504.287C764.14,504.87 764.899,505.343 765.835,505.343L779.696,505.343C780.632,505.343 781.392,504.87 781.392,504.287L781.392,501.056Z" style="fill:white;"/>
            </g>
            <g transform="matrix(0.49669,0,0,0.687835,466.402,431.399)">
                <path d="M781.392,501.056C781.392,500.473 780.736,500 779.929,500L765.602,500C764.795,500 764.14,500.473 764.14,501.056L764.14,504.287C764.14,504.87 764.795,505.343 765.602,505.343L779.929,505.343C780.736,505.343 781.392,504.87 781.392,504.287L781.392,501.056Z" style="fill:white;"/>
            </g>
            <g transform="matrix(0.49669,0,0,0.605533,465.522,500.402)">
                <path d="M781.392,501.056C781.392,500.473 780.815,500 780.104,500L765.427,500C764.716,500 764.14,500.473 764.14,501.056L764.14,504.287C764.14,504.87 764.716,505.343 765.427,505.343L780.104,505.343C780.815,505.343 781.392,504.87 781.392,504.287L781.392,501.056Z" style="fill:white;"/>
            </g>
            <g transform="matrix(0.49669,0,0,0.468363,464.936,581.594)">
                <path d="M781.392,501.056C781.392,500.473 780.946,500 780.396,500L765.135,500C764.586,500 764.14,500.473 764.14,501.056L764.14,504.287C764.14,504.87 764.586,505.343 765.135,505.343L780.396,505.343C780.946,505.343 781.392,504.87 781.392,504.287L781.392,501.056Z" style="fill:white;"/>
            </g>
            <g transform="matrix(0.49669,0,0,0.468363,464.056,604.022)">
                <path d="M781.392,501.056C781.392,500.473 780.946,500 780.396,500L765.135,500C764.586,500 764.14,500.473 764.14,501.056L764.14,504.287C764.14,504.87 764.586,505.343 765.135,505.343L780.396,505.343C780.946,505.343 781.392,504.87 781.392,504.287L781.392,501.056Z" style="fill:white;"/>
            </g>
            <g transform="matrix(0.49669,0,0,0.331194,463.616,681.842)">
                <path d="M781.392,501.056C781.392,500.473 781.076,500 780.688,500L764.844,500C764.455,500 764.14,500.473 764.14,501.056L764.14,504.287C764.14,504.87 764.455,505.343 764.844,505.343L780.688,505.343C781.076,505.343 781.392,504.87 781.392,504.287L781.392,501.056Z" style="fill:white;"/>
            </g>
            <g transform="matrix(0.49669,0,0,0.331194,462.737,697.381)">
                <path d="M781.392,501.056C781.392,500.473 781.076,500 780.688,500L764.844,500C764.455,500 764.14,500.473 764.14,501.056L764.14,504.287C764.14,504.87 764.455,505.343 764.844,505.343L780.688,505.343C781.076,505.343 781.392,504.87 781.392,504.287L781.392,501.056Z" style="fill:white;"/>
            </g>
            <g transform="matrix(0.49669,0,0,0.331194,462.59,703.098)">
                <path d="M781.392,501.056C781.392,500.473 781.076,500 780.688,500L764.844,500C764.455,500 764.14,500.473 764.14,501.056L764.14,504.287C764.14,504.87 764.455,505.343 764.844,505.343L780.688,505.343C781.076,505.343 781.392,504.87 781.392,504.287L781.392,501.056Z" style="fill:white;"/>
            </g>
            <g transform="matrix(0.49669,0,0,0.331194,461.901,712.362)">
                <path d="M781.392,501.056C781.392,500.473 781.076,500 780.688,500L764.844,500C764.455,500 764.14,500.473 764.14,501.056L764.14,504.287C764.14,504.87 764.455,505.343 764.844,505.343L780.688,505.343C781.076,505.343 781.392,504.87 781.392,504.287L781.392,501.056Z" style="fill:white;"/>
            </g>
            <g transform="matrix(0.49669,0,0,0.797571,469.481,200.239)">
                <path d="M781.392,501.056C781.392,500.473 780.632,500 779.696,500L765.835,500C764.899,500 764.14,500.473 764.14,501.056L764.14,504.287C764.14,504.87 764.899,505.343 765.835,505.343L779.696,505.343C780.632,505.343 781.392,504.87 781.392,504.287L781.392,501.056Z" style="fill:white;"/>
            </g>
            <g transform="matrix(1,0,0,1,100,99)">
                <path d="M283.491,205.165L252.104,173.968C217.017,172.277 130.032,167.865 87.762,166.175C87.762,164.915 87.84,163.604 86.471,163.001C86.257,162.907 86.014,162.845 85.783,162.817C85.329,162.762 84.862,162.773 84.406,162.798L23.423,162.361C20.865,162.26 18.653,164.246 17.313,166.264C14.359,170.709 14.068,176.99 13.455,182.135C-5.492,397.943 -1.861,611.404 10.465,811.044C11.155,818.031 12.217,824.967 14.935,831.5C15.797,833.572 16.834,835.134 18.175,836.27C20.063,837.87 22.553,838.625 26.004,838.769L85.392,837.152C86.836,836.918 87.498,836.122 87.45,834.651L252.448,827.323L282.327,796.356L282.347,783.507L327.05,783.933L332.15,788.655L488.848,787.543L496.19,781.278L646.806,781.375L652,786L702,785L705.433,781.553L749.716,781.553C759.946,594.669 759.779,407.545 749.044,220.661L705.01,220.798L701.159,215.768L652.451,216.144L646.857,220.718L496.596,220.478L488.364,213.107L335.549,213.524L329.435,218.638L283.491,218.684L329.348,218.684C329.543,219.13 329.348,218.684 329.348,218.684C319.522,420.544 322.533,626.978 327.05,783.933" style="fill:none;stroke:white;stroke-width:1.2px;"/>
            </g>
            <g transform="matrix(1,0,0,1,100,100)">
                <path d="M754.518,781.313L777.216,781.082L841.541,742.274C843.69,740.745 845.966,739.604 848.301,738.376C852.633,736.096 856.812,734.018 861.702,733.502L921.599,733.342C927.437,733.401 933.569,733.264 939.407,733.264C942.15,733.264 945.967,733.75 948.095,731.765C948.312,731.563 949.306,730.861 950.056,729.967C950.398,729.559 950.751,728.864 950.846,728.593C951.62,726.397 951.444,723.18 951.372,721.106L955.486,721.106C958.896,702.719 961.255,684.183 962.513,665.489L981.683,665.524L981.648,671.001L992.19,671.2C1001.44,570.613 1002.87,456.432 991.353,325.623L982.368,325.712L982.345,330.483L960.672,331.012C960.453,316.006 958.364,294.131 955.385,279.125C954.587,279.133 953.351,279.144 952.553,279.154C952.499,279.155 951.88,279.202 951.862,279.163C951.616,278.616 951.014,274.315 950.665,272.872C950.523,272.283 950.003,270.134 948.91,268.897C947.98,267.844 946.492,267.637 946.007,267.639C946.007,267.639 902.415,267.39 902.415,267.39C892.864,267.313 883.274,267.315 873.723,267.434C868.931,267.493 863.717,267.705 858.98,266.804C854.706,265.992 850.371,264.031 846.438,262.248L776.158,220.397L753.908,220.426C763.231,408.09 763.446,595.053 754.518,781.313Z" style="fill:none;stroke:white;stroke-width:1.2px;"/>
            </g>
            <g transform="matrix(1,0,0,1,100,100)">
                <path d="M981.683,665.524C985.791,630.958 986.902,597.59 986.36,564.884L998.39,564.884" style="fill:none;stroke:white;stroke-width:1.2px;"/>
            </g>
            <g transform="matrix(1,0,0,1,100,100)">
                <path d="M982.345,330.483C983.552,340.084 986.88,395.112 986.291,394.482" style="fill:none;stroke:white;stroke-width:1.2px;"/>
            </g>
            <g transform="matrix(1,0,0,1,100,100)">
                <path d="M283.491,205.165L283.491,218.684" style="fill:none;stroke:white;stroke-width:1.2px;"/>
            </g>
            <g transform="matrix(1,0,0,1,100,100)">
                <path d="M87.45,834.651C67.591,618.48 67.922,395.579 87.762,166.175" style="fill:none;stroke:white;stroke-width:1.2px;"/>
            </g>
            <g transform="matrix(1,0,0,1,100,100)">
                <path d="M252.104,173.968C248.809,285.331 247.221,396.693 247.352,508.056C247.477,614.478 249.172,720.901 252.448,827.323" style="fill:none;stroke:white;stroke-width:1.2px;"/>
            </g>
            <g transform="matrix(1,0,0,1,100,100)">
                <path d="M252.104,173.968C248.809,285.331 247.221,396.693 247.352,508.056C247.477,614.478 249.172,720.901 252.448,827.323" style="fill:none;stroke:white;stroke-width:1.2px;"/>
            </g>
            <g transform="matrix(1,0,0,1,100,100)">
                <path d="M282.347,783.507C273.623,596.371 273.954,408.103 283.491,218.684" style="fill:none;stroke:white;stroke-width:1.2px;"/>
            </g>
            <g transform="matrix(1,0,0,1,100,100)">
                <path d="M986.36,394.488L996.303,394.298" style="fill:none;stroke:white;stroke-width:1.2px;"/>
            </g>
            <g transform="matrix(1,0,0,1,100,100)">
                <path d="M488.848,787.543L488.494,213.886" style="fill:none;stroke:white;stroke-width:1.2px;"/>
            </g>
            <g transform="matrix(1,0,0,1,100,100)">
                <path d="M646.857,220.718C654.578,412.542 655.183,593.613 646.806,781.375" style="fill:none;stroke:white;stroke-width:1.2px;"/>
            </g>
            <g transform="matrix(1,0,0,1,100,100)">
                <path d="M705.01,220.798C710.321,408.751 710.422,595.661 705.433,781.553" style="fill:none;stroke:white;stroke-width:1.2px;"/>
            </g>
            <g transform="matrix(1,0,0,1,100,100)">
                <path d="M777.216,781.082C784.678,620.237 784.474,433.836 776.158,220.397" style="fill:none;stroke:white;stroke-width:1.2px;stroke-linejoin:bevel;"/>
            </g>
            <g transform="matrix(1,0,0,1,100,100)">
                <path d="M876.733,734.458L876.733,268.458" style="fill:none;stroke:white;stroke-width:1.2px;stroke-linejoin:bevel;"/>
            </g>
            <g transform="matrix(1.73723,0,0,1.06046,-341.405,61.2524)">
                <path d="M598.733,387.124C598.733,381.412 595.902,376.775 592.416,376.775L579.782,376.775C576.295,376.775 573.465,381.412 573.465,387.124L573.465,630.524C573.465,636.235 576.295,640.872 579.782,640.872L592.416,640.872C595.902,640.872 598.733,636.235 598.733,630.524L598.733,387.124Z" style="fill:none;stroke:white;stroke-width:0.83px;stroke-linejoin:bevel;"/>
            </g>
            <g transform="matrix(1.06934,0,0,1.55894,79.6879,-182.458)">
                <path d="M299.291,502.672C299.291,501.197 297.546,500 295.396,500L287.257,500C285.107,500 283.362,501.197 283.362,502.672C283.362,504.146 285.107,505.343 287.257,505.343L295.396,505.343C297.546,505.343 299.291,504.146 299.291,502.672Z" style="fill:rgb(188,109,166);"/>
            </g>
            <g transform="matrix(1,0,0,0.972632,97.7327,110.698)">
                <ellipse cx="265.492" cy="504.282" rx="3.117" ry="4.282" style="fill:rgb(188,109,166);"/>
            </g>
            <g transform="matrix(2.36981e-17,-0.457245,0.339662,1.50095e-17,618.375,989.705)">
                <g transform="matrix(61.0428,0,0,61.0428,815.198,647.294)">
                    <path d="M0.302,-0.524L0.12,-0.524L0.12,-0.566C0.147,-0.568 0.171,-0.571 0.193,-0.574C0.214,-0.577 0.233,-0.584 0.25,-0.593C0.266,-0.602 0.28,-0.616 0.291,-0.634C0.302,-0.651 0.31,-0.675 0.315,-0.705L0.366,-0.705L0.366,-0L0.302,-0L0.302,-0.524Z" style="fill:white;fill-rule:nonzero;stroke:white;stroke-width:0.04px;stroke-linecap:butt;stroke-miterlimit:2;"/>
                </g>
                <g transform="matrix(61.0428,0,0,61.0428,849.138,647.294)">
                    <rect x="0.102" y="-0.088" width="0.073" height="0.088" style="fill:white;fill-rule:nonzero;stroke:white;stroke-width:0.04px;stroke-linecap:butt;stroke-miterlimit:2;"/>
                </g>
                <g transform="matrix(61.0428,0,0,61.0428,866.107,647.294)">
                    <path d="M0.059,-0.698L0.508,-0.698L0.508,-0.638C0.457,-0.581 0.414,-0.522 0.379,-0.462C0.344,-0.401 0.315,-0.343 0.292,-0.286C0.269,-0.229 0.253,-0.175 0.242,-0.126C0.231,-0.077 0.224,-0.035 0.222,-0L0.152,-0C0.155,-0.051 0.166,-0.105 0.183,-0.162C0.2,-0.219 0.221,-0.275 0.246,-0.331C0.271,-0.387 0.3,-0.441 0.332,-0.494C0.364,-0.546 0.397,-0.593 0.431,-0.634L0.059,-0.634L0.059,-0.698Z" style="fill:white;fill-rule:nonzero;stroke:white;stroke-width:0.04px;stroke-linecap:butt;stroke-miterlimit:2;"/>
                </g>
            </g>
            <g transform="matrix(1,0,0,1,100,100)">
                <path d="M331.326,288.393L483.963,287.528" style="fill:none;stroke:white;stroke-width:1.2px;stroke-linejoin:bevel;"/>
            </g>
            <g transform="matrix(1,0,0,1,100,109.111)">
                <path d="M331.326,288.393L483.963,287.528" style="fill:none;stroke:white;stroke-width:1.2px;stroke-linejoin:bevel;"/>
            </g>
            <g transform="matrix(1,0,0,1,99.6039,119.013)">
                <path d="M331.326,288.393L484.359,287.528" style="fill:none;stroke:white;stroke-width:1.2px;stroke-linejoin:bevel;"/>
            </g>
            <g transform="matrix(1,0,0,1,99.6039,128.124)">
                <path d="M331.326,288.393L484.359,287.528" style="fill:none;stroke:white;stroke-width:1.2px;stroke-linejoin:bevel;"/>
            </g>
            <g transform="matrix(1,0,0,1,99.2211,138.458)">
                <path d="M331.326,288.393L484.742,287.528" style="fill:none;stroke:white;stroke-width:1.2px;stroke-linejoin:bevel;"/>
            </g>
            <g transform="matrix(1,0,0,1,98.8384,148.41)">
                <path d="M331.326,288.393L485.125,287.528" style="fill:none;stroke:white;stroke-width:1.2px;stroke-linejoin:bevel;"/>
            </g>
            <g transform="matrix(1,0,0,1,98.4556,159.51)">
                <path d="M331.326,288.393L485.508,287.528" style="fill:none;stroke:white;stroke-width:1.2px;stroke-linejoin:bevel;"/>
            </g>
            <g transform="matrix(1,0,0,1,98.8384,170.227)">
                <path d="M331.326,288.393L485.125,287.528" style="fill:none;stroke:white;stroke-width:1.2px;stroke-linejoin:bevel;"/>
            </g>
            <g transform="matrix(1,0,0,1,98.8384,181.327)">
                <path d="M331.326,288.393L485.125,287.528" style="fill:none;stroke:white;stroke-width:1.2px;stroke-linejoin:bevel;"/>
            </g>
            <g transform="matrix(1,0,0,1,97.5266,192.805)">
                <path d="M331.326,288.393L486.437,287.528" style="fill:none;stroke:white;stroke-width:1.2px;stroke-linejoin:bevel;"/>
            </g>
            <g transform="matrix(1,0,0,1,96.8706,204.612)">
                <path d="M331.326,288.393L487.093,287.528" style="fill:none;stroke:white;stroke-width:1.2px;stroke-linejoin:bevel;"/>
            </g>
            <g transform="matrix(1,0,0,1,96.8706,216.418)">
                <path d="M331.326,288.393L487.093,287.528" style="fill:none;stroke:white;stroke-width:1.2px;stroke-linejoin:bevel;"/>
            </g>
            <g transform="matrix(1,0,0,1,96.2147,229.208)">
                <path d="M331.326,288.393L487.748,287.528" style="fill:none;stroke:white;stroke-width:1.2px;stroke-linejoin:bevel;"/>
            </g>
            <g transform="matrix(1,0,0,1,96.8706,241.343)">
                <path d="M331.326,288.393L487.093,287.528" style="fill:none;stroke:white;stroke-width:1.2px;stroke-linejoin:bevel;"/>
            </g>
            <g transform="matrix(1,0,0,1,96.2147,254.133)">
                <path d="M331.326,288.393L487.748,287.528" style="fill:none;stroke:white;stroke-width:1.2px;stroke-linejoin:bevel;"/>
            </g>
            <g transform="matrix(1,0,0,1,96.2147,265.939)">
                <path d="M331.326,288.393L487.748,287.528" style="fill:none;stroke:white;stroke-width:1.2px;stroke-linejoin:bevel;"/>
            </g>
            <g transform="matrix(1,0,0,1,96.2147,279.058)">
                <path d="M331.326,288.393L487.748,287.528" style="fill:none;stroke:white;stroke-width:1.2px;stroke-linejoin:bevel;"/>
            </g>
            <g transform="matrix(1,0,0,1,95.8868,292.504)">
                <path d="M331.326,288.393L488.076,287.528" style="fill:none;stroke:white;stroke-width:1.2px;stroke-linejoin:bevel;"/>
            </g>
            <g transform="matrix(1,0,0,1,96.2147,305.294)">
                <path d="M331.326,288.393L487.748,287.528" style="fill:none;stroke:white;stroke-width:1.2px;stroke-linejoin:bevel;"/>
            </g>
            <g transform="matrix(1,0,0,1,96.5427,317.756)">
                <path d="M331.326,288.393L487.421,287.528" style="fill:none;stroke:white;stroke-width:1.2px;stroke-linejoin:bevel;"/>
            </g>
            <g transform="matrix(1,0,0,1,96.5427,331.203)">
                <path d="M331.326,288.393L487.421,287.528" style="fill:none;stroke:white;stroke-width:1.2px;stroke-linejoin:bevel;"/>
            </g>
            <g transform="matrix(1,0,0,1,96.2147,343.993)">
                <path d="M331.326,288.393L487.748,287.528" style="fill:none;stroke:white;stroke-width:1.2px;stroke-linejoin:bevel;"/>
            </g>
            <g transform="matrix(1,0,0,1,97.1986,356.127)">
                <path d="M331.326,288.393L486.765,287.528" style="fill:none;stroke:white;stroke-width:1.2px;stroke-linejoin:bevel;"/>
            </g>
            <g transform="matrix(1,0,0,1,96.8706,368.918)">
                <path d="M331.326,288.393L487.093,287.528" style="fill:none;stroke:white;stroke-width:1.2px;stroke-linejoin:bevel;"/>
            </g>
            <g transform="matrix(1,0,0,1,96.8706,381.052)">
                <path d="M331.326,288.393L487.093,287.528" style="fill:none;stroke:white;stroke-width:1.2px;stroke-linejoin:bevel;"/>
            </g>
            <g transform="matrix(1,0,0,1,101.276,598.145)">
                <path d="M331.326,288.393L482.688,287.528" style="fill:none;stroke:white;stroke-width:1.2px;stroke-linejoin:bevel;"/>
            </g>
            <g transform="matrix(1,0,0,1,100.165,596.664)">
                <path d="M331.326,288.393L483.798,287.528" style="fill:none;stroke:white;stroke-width:1.2px;stroke-linejoin:bevel;"/>
            </g>
            <g transform="matrix(1,0,0,1,99.4245,595.183)">
                <path d="M331.326,288.393L484.539,287.528" style="fill:none;stroke:white;stroke-width:1.2px;stroke-linejoin:bevel;"/>
            </g>
            <g transform="matrix(1,0,0,1,99.635,593.139)">
                <path d="M331.326,288.393L484.328,287.528" style="fill:none;stroke:white;stroke-width:1.2px;stroke-linejoin:bevel;"/>
            </g>
            <g transform="matrix(1,0,0,1,99.635,588.88)">
                <path d="M331.326,288.393L484.328,287.528" style="fill:none;stroke:white;stroke-width:1.2px;stroke-linejoin:bevel;"/>
            </g>
            <g transform="matrix(1,0,0,1,99.4414,591.203)">
                <path d="M331.326,288.393L484.522,287.528" style="fill:none;stroke:white;stroke-width:1.2px;stroke-linejoin:bevel;"/>
            </g>
            <g transform="matrix(1,0,0,1,99.635,585.396)">
                <path d="M331.326,288.393L484.328,287.528" style="fill:none;stroke:white;stroke-width:1.2px;stroke-linejoin:bevel;"/>
            </g>
            <g transform="matrix(1,0,0,1,99.4414,581.138)">
                <path d="M331.326,288.393L484.522,287.528" style="fill:none;stroke:white;stroke-width:1.2px;stroke-linejoin:bevel;"/>
            </g>
            <g transform="matrix(1,0,0,1,99.635,576.879)">
                <path d="M331.326,288.393L484.328,287.528" style="fill:none;stroke:white;stroke-width:1.2px;stroke-linejoin:bevel;"/>
            </g>
            <g transform="matrix(1,0,0,1,99.2478,571.653)">
                <path d="M331.326,288.393L484.715,287.528" style="fill:none;stroke:white;stroke-width:1.2px;stroke-linejoin:bevel;"/>
            </g>
            <g transform="matrix(1,0,0,1,99.2478,566.427)">
                <path d="M331.326,288.393L484.715,287.528" style="fill:none;stroke:white;stroke-width:1.2px;stroke-linejoin:bevel;"/>
            </g>
            <g transform="matrix(1,0,0,1,99.2478,559.845)">
                <path d="M331.326,288.393L484.715,287.528" style="fill:none;stroke:white;stroke-width:1.2px;stroke-linejoin:bevel;"/>
            </g>
            <g transform="matrix(1,0,0,1,99.0543,554.232)">
                <path d="M331.326,288.393L484.909,287.528" style="fill:none;stroke:white;stroke-width:1.2px;stroke-linejoin:bevel;"/>
            </g>
            <g transform="matrix(1,0,0,1,99.0543,546.876)">
                <path d="M331.326,288.393L484.909,287.528" style="fill:none;stroke:white;stroke-width:1.2px;stroke-linejoin:bevel;"/>
            </g>
            <g transform="matrix(1,0,0,1,98.8607,539.327)">
                <path d="M331.326,288.393L485.103,287.528" style="fill:none;stroke:white;stroke-width:1.2px;stroke-linejoin:bevel;"/>
            </g>
            <g transform="matrix(1,0,0,1,99.0543,530.81)">
                <path d="M331.326,288.393L484.909,287.528" style="fill:none;stroke:white;stroke-width:1.2px;stroke-linejoin:bevel;"/>
            </g>
            <g transform="matrix(1,0,0,1,98.8607,522.487)">
                <path d="M331.326,288.393L485.103,287.528" style="fill:none;stroke:white;stroke-width:1.2px;stroke-linejoin:bevel;"/>
            </g>
            <g transform="matrix(1,0,0,1,98.8607,513.97)">
                <path d="M331.326,288.393L485.103,287.528" style="fill:none;stroke:white;stroke-width:1.2px;stroke-linejoin:bevel;"/>
            </g>
            <g transform="matrix(1,0,0,1,98.4736,504.292)">
                <path d="M331.326,288.393L485.49,287.528" style="fill:none;stroke:white;stroke-width:1.2px;stroke-linejoin:bevel;"/>
            </g>
            <g transform="matrix(1,0,0,1,98.4736,494.704)">
                <path d="M331.326,288.393L485.49,287.528" style="fill:none;stroke:white;stroke-width:1.2px;stroke-linejoin:bevel;"/>
            </g>
            <g transform="matrix(1,0,0,1,98.0824,485.12)">
                <path d="M331.326,288.393L485.881,287.528" style="fill:none;stroke:white;stroke-width:1.2px;stroke-linejoin:bevel;"/>
            </g>
            <g transform="matrix(1,0,0,1,97.6911,474.166)">
                <path d="M331.326,288.393L486.272,287.528" style="fill:none;stroke:white;stroke-width:1.2px;stroke-linejoin:bevel;"/>
            </g>
            <g transform="matrix(1,0,0,1,97.8868,463.994)">
                <path d="M331.326,288.393L486.076,287.528" style="fill:none;stroke:white;stroke-width:1.2px;stroke-linejoin:bevel;"/>
            </g>
            <g transform="matrix(1,0,0,1,97.6911,453.04)">
                <path d="M331.326,288.393L486.272,287.528" style="fill:none;stroke:white;stroke-width:1.2px;stroke-linejoin:bevel;"/>
            </g>
            <g transform="matrix(1,0,0,1,97.6911,441.695)">
                <path d="M331.326,288.393L486.272,287.528" style="fill:none;stroke:white;stroke-width:1.2px;stroke-linejoin:bevel;"/>
            </g>
            <g transform="matrix(1,0,0,1,98.0824,429.763)">
                <path d="M331.326,288.393L485.881,287.528" style="fill:none;stroke:white;stroke-width:1.2px;stroke-linejoin:bevel;"/>
            </g>
            <g transform="matrix(1,0,0,1,97.6911,417.636)">
                <path d="M331.326,288.393L486.272,287.528" style="fill:none;stroke:white;stroke-width:1.2px;stroke-linejoin:bevel;"/>
            </g>
            <g transform="matrix(1,0,0,1,97.8868,405.899)">
                <path d="M331.326,288.393L486.076,287.528" style="fill:none;stroke:white;stroke-width:1.2px;stroke-linejoin:bevel;"/>
            </g>
            <g transform="matrix(1,0,0,1,97.6911,393.38)">
                <path d="M331.326,288.393L486.272,287.528" style="fill:none;stroke:white;stroke-width:1.2px;stroke-linejoin:bevel;"/>
            </g>
            <g transform="matrix(1,0,0,1,100,93.2661)">
                <path d="M331.326,288.393L483.963,287.528" style="fill:none;stroke:white;stroke-width:1.2px;stroke-linejoin:bevel;"/>
            </g>
            <g transform="matrix(1,0,0,1,100.396,85.3439)">
                <path d="M331.326,288.393L483.567,287.528" style="fill:none;stroke:white;stroke-width:1.2px;stroke-linejoin:bevel;"/>
            </g>
            <g transform="matrix(1,0,0,1,100,77.8178)">
                <path d="M331.326,288.393L483.963,287.528" style="fill:none;stroke:white;stroke-width:1.2px;stroke-linejoin:bevel;"/>
            </g>
            <g transform="matrix(1,0,0,1,100.396,69.8956)">
                <path d="M331.326,288.393L483.567,287.528" style="fill:none;stroke:white;stroke-width:1.2px;stroke-linejoin:bevel;"/>
            </g>
            <g transform="matrix(1,0,0,1,100.396,63.5578)">
                <path d="M331.326,288.393L483.567,287.528" style="fill:none;stroke:white;stroke-width:1.2px;stroke-linejoin:bevel;"/>
            </g>
            <g transform="matrix(1,0,0,1,100.792,58.0122)">
                <path d="M331.326,288.393L483.171,287.528" style="fill:none;stroke:white;stroke-width:1.2px;stroke-linejoin:bevel;"/>
            </g>
            <g transform="matrix(1,0,0,1,100.619,52.0065)">
                <path d="M331.326,288.393L484.171,287.528" style="fill:none;stroke:white;stroke-width:1.2px;stroke-linejoin:bevel;"/>
            </g>
            <g transform="matrix(1,0,0,1,100.361,46.1472)">
                <path d="M331.326,288.393L484.429,287.528" style="fill:none;stroke:white;stroke-width:1.2px;stroke-linejoin:bevel;"/>
            </g>
            <g transform="matrix(1,0,0,1,101.008,40.6076)">
                <path d="M331.326,288.393L483.782,287.528" style="fill:none;stroke:white;stroke-width:1.2px;stroke-linejoin:bevel;"/>
            </g>
            <g transform="matrix(1,0,0,1,100.534,37.0172)">
                <path d="M331.326,288.393L484.255,287.528" style="fill:none;stroke:white;stroke-width:1.2px;stroke-linejoin:bevel;"/>
            </g>
            <g transform="matrix(1,0,0,1,100.715,33.1612)">
                <path d="M331.326,288.393L484.074,287.528" style="fill:none;stroke:white;stroke-width:1.2px;stroke-linejoin:bevel;"/>
            </g>
            <g transform="matrix(1,0,0,1,100.931,30.5725)">
                <path d="M331.326,288.393L483.859,287.528" style="fill:none;stroke:white;stroke-width:1.2px;stroke-linejoin:bevel;"/>
            </g>
            <g transform="matrix(1,0,0,1,102.957,28.6309)">
                <path d="M331.326,288.393L481.833,287.398" style="fill:none;stroke:white;stroke-width:1.2px;stroke-linejoin:bevel;"/>
            </g>
            <g transform="matrix(1,0,0,1,104.871,26.9051)">
                <path d="M331.326,288.393L479.918,287.658" style="fill:none;stroke:white;stroke-width:1.2px;stroke-linejoin:bevel;"/>
            </g>
            <g transform="matrix(0.336355,0,0,0.991926,641.866,102.645)">
                <path d="M331.326,288.393L481.116,287.528" style="fill:none;stroke:white;stroke-width:1.62px;stroke-linejoin:bevel;"/>
            </g>
            <g transform="matrix(0.336355,0,0,0.991926,641.866,110.679)">
                <path d="M331.326,288.393L481.116,287.528" style="fill:none;stroke:white;stroke-width:1.62px;stroke-linejoin:bevel;"/>
            </g>
            <g transform="matrix(0.336355,0,0,0.991926,641.984,120.502)">
                <path d="M331.326,288.393L480.766,287.528" style="fill:none;stroke:white;stroke-width:1.62px;stroke-linejoin:bevel;"/>
            </g>
            <g transform="matrix(0.336355,0,0,0.991926,642.736,130.542)">
                <path d="M329.452,288.393L478.529,287.782" style="fill:none;stroke:white;stroke-width:1.62px;stroke-linejoin:bevel;"/>
            </g>
            <g transform="matrix(0.336355,0,0,0.991926,642.106,140.793)">
                <path d="M331.326,288.393L480.403,287.528" style="fill:none;stroke:white;stroke-width:1.62px;stroke-linejoin:bevel;"/>
            </g>
            <g transform="matrix(0.336355,0,0,0.991926,642.479,151.417)">
                <path d="M331.326,288.393L479.294,287.528" style="fill:none;stroke:white;stroke-width:1.62px;stroke-linejoin:bevel;"/>
            </g>
            <g transform="matrix(0.336355,0,0,0.991926,642.852,161.925)">
                <path d="M331.326,288.393L478.186,287.528" style="fill:none;stroke:white;stroke-width:1.62px;stroke-linejoin:bevel;"/>
            </g>
            <g transform="matrix(0.336355,0,0,0.991926,643.231,173.057)">
                <path d="M330.197,288.393L477.057,287.528" style="fill:none;stroke:white;stroke-width:1.62px;stroke-linejoin:bevel;"/>
            </g>
            <g transform="matrix(0.336355,0,0,0.991926,643.482,183.817)">
                <path d="M329.452,288.393L479.285,287.528" style="fill:none;stroke:white;stroke-width:1.62px;stroke-linejoin:bevel;"/>
            </g>
            <g transform="matrix(0.336355,0,0,0.991926,644.295,196.457)">
                <path d="M327.035,288.393L477.663,287.528" style="fill:none;stroke:white;stroke-width:1.62px;stroke-linejoin:bevel;"/>
            </g>
            <g transform="matrix(0.336355,0,0,0.991926,642.318,210.425)">
                <path d="M332.911,288.393L483.539,287.528" style="fill:none;stroke:white;stroke-width:1.62px;stroke-linejoin:bevel;"/>
            </g>
            <g transform="matrix(0.336355,0,0,0.991926,644.074,222.136)">
                <path d="M327.691,288.393L478.319,287.528" style="fill:none;stroke:white;stroke-width:1.62px;stroke-linejoin:bevel;"/>
            </g>
            <g transform="matrix(0.336355,0,0,0.991926,643.101,234.071)">
                <path d="M331.326,288.393L481.212,287.528" style="fill:none;stroke:white;stroke-width:1.62px;stroke-linejoin:bevel;"/>
            </g>
            <g transform="matrix(0.336355,0,0,0.991926,643.322,247.111)">
                <path d="M331.326,288.393L480.556,287.528" style="fill:none;stroke:white;stroke-width:1.62px;stroke-linejoin:bevel;"/>
            </g>
            <g transform="matrix(0.336355,0,0,0.991926,643.603,260.048)">
                <path d="M331.326,288.393L479.72,287.528" style="fill:none;stroke:white;stroke-width:1.62px;stroke-linejoin:bevel;"/>
            </g>
            <g transform="matrix(0.336355,0,0,0.991926,643.352,273.766)">
                <path d="M331.326,288.393L481.198,287.528" style="fill:none;stroke:white;stroke-width:1.62px;stroke-linejoin:bevel;"/>
            </g>
            <g transform="matrix(0.336355,0,0,0.991926,643.603,286.778)">
                <path d="M331.326,288.393L480.452,287.528" style="fill:none;stroke:white;stroke-width:1.62px;stroke-linejoin:bevel;"/>
            </g>
            <g transform="matrix(0.336355,0,0,0.991926,642.991,300.367)">
                <path d="M333.145,288.393L482.272,287.528" style="fill:none;stroke:white;stroke-width:1.62px;stroke-linejoin:bevel;"/>
            </g>
            <g transform="matrix(0.336355,0,0,0.991926,643.603,313.054)">
                <path d="M331.326,288.393L480.452,287.528" style="fill:none;stroke:white;stroke-width:1.62px;stroke-linejoin:bevel;"/>
            </g>
            <g transform="matrix(0.336355,0,0,0.991926,643.211,327.171)">
                <path d="M332.489,288.393L481.616,287.528" style="fill:none;stroke:white;stroke-width:1.62px;stroke-linejoin:bevel;"/>
            </g>
            <g transform="matrix(0.336355,0,0,0.991926,643.964,340.258)">
                <path d="M330.252,288.393L479.379,287.528" style="fill:none;stroke:white;stroke-width:1.62px;stroke-linejoin:bevel;"/>
            </g>
            <g transform="matrix(0.336355,0,0,0.991926,643.603,352.694)">
                <path d="M331.326,288.393L480.452,287.528" style="fill:none;stroke:white;stroke-width:1.62px;stroke-linejoin:bevel;"/>
            </g>
            <g transform="matrix(0.336355,0,0,0.991926,643.934,365.734)">
                <path d="M330.342,288.393L479.468,287.528" style="fill:none;stroke:white;stroke-width:1.62px;stroke-linejoin:bevel;"/>
            </g>
            <g transform="matrix(0.336355,0,0,0.991926,643.322,378.923)">
                <path d="M332.161,288.393L481.288,287.528" style="fill:none;stroke:white;stroke-width:1.62px;stroke-linejoin:bevel;"/>
            </g>
            <g transform="matrix(0.336355,0,0,0.991926,643.322,391.712)">
                <path d="M332.161,288.393L481.288,287.528" style="fill:none;stroke:white;stroke-width:1.62px;stroke-linejoin:bevel;"/>
            </g>
            <g transform="matrix(0.315912,0.000341353,0.00100667,0.991909,648.159,598.29)">
                <path d="M331.326,288.393L484.171,287.528" style="fill:none;stroke:white;stroke-width:1.63px;stroke-linejoin:bevel;"/>
            </g>
            <g transform="matrix(0.326522,0.000164187,0.000484195,0.991918,643.921,596.878)">
                <path d="M328.263,288.394L484.171,287.528" style="fill:none;stroke:white;stroke-width:1.62px;stroke-linejoin:bevel;"/>
            </g>
            <g transform="matrix(0.336355,0,0,0.991926,640.293,595.077)">
                <path d="M325.38,288.566L482.821,287.528" style="fill:none;stroke:white;stroke-width:1.62px;stroke-linejoin:bevel;"/>
            </g>
            <g transform="matrix(0.336355,0,0,0.991926,640.072,593.259)">
                <path d="M326.036,288.393L483.477,287.528" style="fill:none;stroke:white;stroke-width:1.62px;stroke-linejoin:bevel;"/>
            </g>
            <g transform="matrix(0.336355,0,0,0.991926,640.221,587.839)">
                <path d="M325.592,288.393L483.033,287.528" style="fill:none;stroke:white;stroke-width:1.62px;stroke-linejoin:bevel;"/>
            </g>
            <g transform="matrix(0.336355,0,0,0.991926,640.007,590.89)">
                <path d="M326.23,288.393L483.67,287.528" style="fill:none;stroke:white;stroke-width:1.62px;stroke-linejoin:bevel;"/>
            </g>
            <g transform="matrix(0.336355,0,0,0.991926,640.67,584.383)">
                <path d="M326.075,288.393L481.7,287.528" style="fill:none;stroke:white;stroke-width:1.62px;stroke-linejoin:bevel;"/>
            </g>
            <g transform="matrix(0.336355,0,0,0.991926,640.903,580.159)">
                <path d="M325.38,288.393L481.004,287.528" style="fill:none;stroke:white;stroke-width:1.62px;stroke-linejoin:bevel;"/>
            </g>
            <g transform="matrix(0.336355,0,0,0.991926,640.819,576.234)">
                <path d="M328.41,288.393L481.255,287.528" style="fill:none;stroke:white;stroke-width:1.62px;stroke-linejoin:bevel;"/>
            </g>
            <g transform="matrix(0.336355,0,0,0.991926,640.838,571.648)">
                <path d="M328.353,288.393L481.198,287.528" style="fill:none;stroke:white;stroke-width:1.62px;stroke-linejoin:bevel;"/>
            </g>
            <g transform="matrix(0.336355,0,0,0.991926,640.822,566.422)">
                <path d="M329.621,288.393L483.104,287.528" style="fill:none;stroke:white;stroke-width:1.62px;stroke-linejoin:bevel;"/>
            </g>
            <g transform="matrix(0.336355,0,0,0.991926,641.248,561.6)">
                <path d="M328.353,288.393L481.836,287.528" style="fill:none;stroke:white;stroke-width:1.62px;stroke-linejoin:bevel;"/>
            </g>
            <g transform="matrix(0.336355,0,0,0.991926,640.757,555.605)">
                <path d="M331.326,288.393L483.297,287.528" style="fill:none;stroke:white;stroke-width:1.62px;stroke-linejoin:bevel;"/>
            </g>
            <g transform="matrix(0.336355,0,0,0.991926,641.396,548.096)">
                <path d="M329.424,288.393L481.395,287.528" style="fill:none;stroke:white;stroke-width:1.62px;stroke-linejoin:bevel;"/>
            </g>
            <g transform="matrix(0.336355,0,0,0.991926,641.971,540.394)">
                <path d="M328.353,288.393L479.687,287.528" style="fill:none;stroke:white;stroke-width:1.62px;stroke-linejoin:bevel;"/>
            </g>
            <g transform="matrix(0.336355,0,0,0.991926,642.463,532.159)">
                <path d="M328.159,288.393L478.225,287.528" style="fill:none;stroke:white;stroke-width:1.62px;stroke-linejoin:bevel;"/>
            </g>
            <g transform="matrix(0.336355,0,0,0.991926,642.184,523.903)">
                <path d="M328.987,288.393L481.642,287.528" style="fill:none;stroke:white;stroke-width:1.62px;stroke-linejoin:bevel;"/>
            </g>
            <g transform="matrix(0.336355,0,0,0.991926,642.398,515.668)">
                <path d="M328.353,288.393L481.008,287.528" style="fill:none;stroke:white;stroke-width:1.62px;stroke-linejoin:bevel;"/>
            </g>
            <g transform="matrix(0.336355,0,0,0.991926,642.694,505.429)">
                <path d="M330.255,288.393L480.127,287.528" style="fill:none;stroke:white;stroke-width:1.62px;stroke-linejoin:bevel;"/>
            </g>
            <g transform="matrix(0.336355,0,0,0.991926,643.334,496.345)">
                <path d="M328.353,288.393L478.225,287.528" style="fill:none;stroke:white;stroke-width:1.62px;stroke-linejoin:bevel;"/>
            </g>
            <g transform="matrix(0.336355,0,0,0.991926,642.977,485.659)">
                <path d="M331.326,288.393L482.313,287.528" style="fill:none;stroke:white;stroke-width:1.62px;stroke-linejoin:bevel;"/>
            </g>
            <g transform="matrix(0.336355,0,0,0.991926,643.347,474.793)">
                <path d="M331.326,288.393L481.213,287.528" style="fill:none;stroke:white;stroke-width:1.62px;stroke-linejoin:bevel;"/>
            </g>
            <g transform="matrix(0.336355,0,0,0.991926,643.413,463.951)">
                <path d="M331.891,288.393L481.017,287.528" style="fill:none;stroke:white;stroke-width:1.62px;stroke-linejoin:bevel;"/>
            </g>
            <g transform="matrix(0.336355,0,0,0.991926,643.096,452.835)">
                <path d="M332.832,288.393L481.959,287.528" style="fill:none;stroke:white;stroke-width:1.62px;stroke-linejoin:bevel;"/>
            </g>
            <g transform="matrix(0.336355,0,0,0.991926,643.598,440.829)">
                <path d="M331.341,288.393L480.467,287.528" style="fill:none;stroke:white;stroke-width:1.62px;stroke-linejoin:bevel;"/>
            </g>
            <g transform="matrix(0.336355,0,0,0.991926,643.98,428.742)">
                <path d="M330.204,288.393L479.33,287.528" style="fill:none;stroke:white;stroke-width:1.62px;stroke-linejoin:bevel;"/>
            </g>
            <g transform="matrix(0.336355,0,0,0.991926,644.099,416.462)">
                <path d="M329.849,288.393L478.976,287.528" style="fill:none;stroke:white;stroke-width:1.62px;stroke-linejoin:bevel;"/>
            </g>
            <g transform="matrix(0.336355,0,0,0.991926,643.663,403.566)">
                <path d="M331.145,288.393L480.272,287.528" style="fill:none;stroke:white;stroke-width:1.62px;stroke-linejoin:bevel;"/>
            </g>
            <g transform="matrix(0.336355,0,0,0.991926,641.364,95.7148)">
                <path d="M329.485,288.393L479.634,287.528" style="fill:none;stroke:white;stroke-width:1.62px;stroke-linejoin:bevel;"/>
            </g>
            <g transform="matrix(0.336355,0,0,0.991926,640.996,87.104)">
                <path d="M330.58,288.393L482.548,287.528" style="fill:none;stroke:white;stroke-width:1.62px;stroke-linejoin:bevel;"/>
            </g>
            <g transform="matrix(0.336355,0,0,0.991926,641.364,79.6387)">
                <path d="M329.485,288.393L481.453,287.528" style="fill:none;stroke:white;stroke-width:1.62px;stroke-linejoin:bevel;"/>
            </g>
            <g transform="matrix(0.336355,0,0,0.991926,640.745,72.5329)">
                <path d="M331.326,288.393L484.171,287.528" style="fill:none;stroke:white;stroke-width:1.62px;stroke-linejoin:bevel;"/>
            </g>
            <g transform="matrix(0.336355,0,0,0.991926,640.996,65.9955)">
                <path d="M325.03,288.393L482.548,287.528" style="fill:none;stroke:white;stroke-width:1.62px;stroke-linejoin:bevel;"/>
            </g>
            <g transform="matrix(0.336355,0,0,0.991926,640.878,60.9963)">
                <path d="M325.38,288.393L482.898,287.528" style="fill:none;stroke:white;stroke-width:1.62px;stroke-linejoin:bevel;"/>
            </g>
            <g transform="matrix(0.336355,0,0,0.991926,640.82,55.0391)">
                <path d="M323.127,288.393L480.098,287.528" style="fill:none;stroke:white;stroke-width:1.62px;stroke-linejoin:bevel;"/>
            </g>
            <g transform="matrix(0.336355,0,0,0.991926,640.482,50.2304)">
                <path d="M324.131,288.393L481.102,287.528" style="fill:none;stroke:white;stroke-width:1.62px;stroke-linejoin:bevel;"/>
            </g>
            <g transform="matrix(0.336355,0,0,0.991926,640.7,44.9864)">
                <path d="M323.484,288.393L480.455,287.528" style="fill:none;stroke:white;stroke-width:1.62px;stroke-linejoin:bevel;"/>
            </g>
            <g transform="matrix(0.336355,0,0,0.991926,640.29,40.4216)">
                <path d="M324.703,288.393L481.674,287.528" style="fill:none;stroke:white;stroke-width:1.62px;stroke-linejoin:bevel;"/>
            </g>
            <g transform="matrix(0.336355,0,0,0.991926,640.378,38.1017)">
                <path d="M324.443,288.393L481.414,287.528" style="fill:none;stroke:white;stroke-width:1.62px;stroke-linejoin:bevel;"/>
            </g>
            <g transform="matrix(0.336355,0,0,0.991926,640.45,35.8903)">
                <path d="M324.227,288.393L481.198,287.528" style="fill:none;stroke:white;stroke-width:1.62px;stroke-linejoin:bevel;"/>
            </g>
            <g transform="matrix(0.336355,0,0,0.991926,640.062,33.608)">
                <path d="M331.326,288.393L477.757,287.761" style="fill:none;stroke:white;stroke-width:1.62px;stroke-linejoin:bevel;"/>
            </g>
            <g transform="matrix(0.312675,0.000395403,0.00116606,0.991906,648.572,31.7707)">
                <path d="M331.326,288.393L483.481,287.807" style="fill:none;stroke:white;stroke-width:1.63px;stroke-linejoin:bevel;"/>
            </g>
        </g>
    </g>
</svg>
