<?xml version="1.0" encoding="UTF-8" standalone="no"?>
<!DOCTYPE svg PUBLIC "-//W3C//DTD SVG 1.1//EN" "http://www.w3.org/Graphics/SVG/1.1/DTD/svg11.dtd">
<svg width="100%" height="100%" viewBox="0 0 2044 820" version="1.1" xmlns="http://www.w3.org/2000/svg" xmlns:xlink="http://www.w3.org/1999/xlink" xml:space="preserve" xmlns:serif="http://www.serif.com/" style="fill-rule:evenodd;clip-rule:evenodd;stroke-linecap:round;stroke-linejoin:round;stroke-miterlimit:1.5;">
    <g transform="matrix(4.16667,0,0,4.16667,-64.4521,-475.868)">
        <g transform="matrix(1,0,0,1,-170.294,43.0607)">
            <g transform="matrix(100,0,0,100,176.281,267.369)">
                <path d="M0.114,-0L0.114,-0.7L0.416,-0.7C0.494,-0.7 0.554,-0.684 0.597,-0.653C0.64,-0.622 0.662,-0.577 0.662,-0.52C0.662,-0.482 0.653,-0.45 0.635,-0.424C0.618,-0.398 0.594,-0.378 0.564,-0.365C0.534,-0.352 0.5,-0.345 0.464,-0.345L0.481,-0.369C0.526,-0.369 0.564,-0.362 0.597,-0.348C0.629,-0.335 0.654,-0.314 0.672,-0.287C0.69,-0.26 0.699,-0.227 0.699,-0.187C0.699,-0.128 0.677,-0.082 0.633,-0.049C0.59,-0.016 0.524,-0 0.436,-0L0.114,-0ZM0.188,-0.061L0.435,-0.061C0.496,-0.061 0.544,-0.071 0.576,-0.093C0.609,-0.114 0.625,-0.147 0.625,-0.193C0.625,-0.238 0.609,-0.272 0.576,-0.293C0.544,-0.314 0.496,-0.324 0.435,-0.324L0.18,-0.324L0.18,-0.385L0.411,-0.385C0.467,-0.385 0.511,-0.396 0.542,-0.417C0.573,-0.438 0.588,-0.47 0.588,-0.512C0.588,-0.554 0.573,-0.586 0.542,-0.607C0.511,-0.628 0.467,-0.639 0.411,-0.639L0.188,-0.639L0.188,-0.061Z" style="fill-rule:nonzero;"/>
            </g>
            <g transform="matrix(100,0,0,100,251.704,267.369)">
                <rect x="0.099" y="-0.742" width="0.071" height="0.742"/>
            </g>
            <g transform="matrix(100,0,0,100,278.631,267.369)">
                <path d="M0.322,0.005C0.268,0.005 0.22,-0.007 0.178,-0.03C0.137,-0.053 0.104,-0.084 0.081,-0.125C0.058,-0.165 0.046,-0.211 0.046,-0.263C0.046,-0.315 0.057,-0.361 0.079,-0.401C0.102,-0.441 0.132,-0.473 0.171,-0.496C0.21,-0.519 0.254,-0.53 0.303,-0.53C0.352,-0.53 0.396,-0.519 0.434,-0.497C0.473,-0.474 0.503,-0.443 0.525,-0.403C0.547,-0.362 0.558,-0.316 0.558,-0.263L0.558,-0.253C0.557,-0.249 0.557,-0.245 0.557,-0.241L0.1,-0.241L0.1,-0.294L0.519,-0.294L0.491,-0.273C0.491,-0.311 0.483,-0.345 0.467,-0.374C0.451,-0.404 0.428,-0.427 0.4,-0.444C0.372,-0.461 0.34,-0.469 0.303,-0.469C0.267,-0.469 0.234,-0.461 0.206,-0.444C0.178,-0.427 0.155,-0.404 0.139,-0.374C0.123,-0.344 0.116,-0.31 0.116,-0.272L0.116,-0.26C0.116,-0.22 0.124,-0.185 0.142,-0.155C0.16,-0.124 0.184,-0.101 0.216,-0.084C0.247,-0.066 0.283,-0.058 0.324,-0.058C0.356,-0.058 0.386,-0.064 0.414,-0.075C0.441,-0.087 0.465,-0.104 0.485,-0.127L0.525,-0.081C0.501,-0.053 0.472,-0.032 0.437,-0.017C0.402,-0.003 0.364,0.005 0.322,0.005Z" style="fill-rule:nonzero;"/>
            </g>
            <g transform="matrix(100,0,0,100,339.031,267.369)">
                <path d="M0.367,-0.53C0.41,-0.53 0.447,-0.522 0.48,-0.505C0.512,-0.489 0.537,-0.464 0.555,-0.431C0.574,-0.397 0.583,-0.355 0.583,-0.305L0.583,-0L0.512,-0L0.512,-0.298C0.512,-0.353 0.498,-0.395 0.47,-0.424C0.443,-0.452 0.404,-0.466 0.354,-0.466C0.317,-0.466 0.284,-0.459 0.256,-0.444C0.229,-0.429 0.207,-0.407 0.192,-0.379C0.178,-0.35 0.17,-0.316 0.17,-0.276L0.17,-0L0.099,-0L0.099,-0.526L0.167,-0.526L0.167,-0.381L0.156,-0.408C0.173,-0.446 0.2,-0.476 0.236,-0.498C0.272,-0.519 0.316,-0.53 0.367,-0.53Z" style="fill-rule:nonzero;"/>
            </g>
            <g transform="matrix(100,0,0,100,406.681,267.369)">
                <path d="M0.308,0.005C0.258,0.005 0.214,-0.007 0.174,-0.029C0.134,-0.052 0.103,-0.083 0.08,-0.123C0.057,-0.163 0.046,-0.21 0.046,-0.263C0.046,-0.316 0.057,-0.363 0.08,-0.403C0.103,-0.443 0.134,-0.474 0.174,-0.496C0.214,-0.519 0.258,-0.53 0.308,-0.53C0.354,-0.53 0.395,-0.52 0.431,-0.499C0.468,-0.478 0.497,-0.448 0.519,-0.408C0.54,-0.369 0.551,-0.32 0.551,-0.263C0.551,-0.206 0.541,-0.158 0.519,-0.118C0.498,-0.078 0.469,-0.047 0.433,-0.027C0.396,-0.006 0.355,0.005 0.308,0.005ZM0.314,-0.058C0.351,-0.058 0.384,-0.066 0.414,-0.084C0.443,-0.101 0.466,-0.125 0.484,-0.156C0.501,-0.187 0.509,-0.222 0.509,-0.263C0.509,-0.304 0.501,-0.34 0.484,-0.371C0.466,-0.401 0.443,-0.425 0.414,-0.442C0.384,-0.459 0.351,-0.468 0.314,-0.468C0.276,-0.468 0.243,-0.459 0.214,-0.442C0.184,-0.425 0.161,-0.401 0.144,-0.371C0.126,-0.34 0.118,-0.304 0.118,-0.263C0.118,-0.222 0.126,-0.187 0.144,-0.156C0.161,-0.125 0.184,-0.101 0.214,-0.084C0.243,-0.066 0.276,-0.058 0.314,-0.058ZM0.511,-0L0.511,-0.158L0.518,-0.264L0.508,-0.37L0.508,-0.742L0.579,-0.742L0.579,-0L0.511,-0Z" style="fill-rule:nonzero;"/>
            </g>
            <g transform="matrix(100,0,0,100,474.517,267.369)">
                <path d="M0.322,0.005C0.268,0.005 0.22,-0.007 0.178,-0.03C0.137,-0.053 0.104,-0.084 0.081,-0.125C0.058,-0.165 0.046,-0.211 0.046,-0.263C0.046,-0.315 0.057,-0.361 0.079,-0.401C0.102,-0.441 0.132,-0.473 0.171,-0.496C0.21,-0.519 0.254,-0.53 0.303,-0.53C0.352,-0.53 0.396,-0.519 0.434,-0.497C0.473,-0.474 0.503,-0.443 0.525,-0.403C0.547,-0.362 0.558,-0.316 0.558,-0.263L0.558,-0.253C0.557,-0.249 0.557,-0.245 0.557,-0.241L0.1,-0.241L0.1,-0.294L0.519,-0.294L0.491,-0.273C0.491,-0.311 0.483,-0.345 0.467,-0.374C0.451,-0.404 0.428,-0.427 0.4,-0.444C0.372,-0.461 0.34,-0.469 0.303,-0.469C0.267,-0.469 0.234,-0.461 0.206,-0.444C0.178,-0.427 0.155,-0.404 0.139,-0.374C0.123,-0.344 0.116,-0.31 0.116,-0.272L0.116,-0.26C0.116,-0.22 0.124,-0.185 0.142,-0.155C0.16,-0.124 0.184,-0.101 0.216,-0.084C0.247,-0.066 0.283,-0.058 0.324,-0.058C0.356,-0.058 0.386,-0.064 0.414,-0.075C0.441,-0.087 0.465,-0.104 0.485,-0.127L0.525,-0.081C0.501,-0.053 0.472,-0.032 0.437,-0.017C0.402,-0.003 0.364,0.005 0.322,0.005Z" style="fill-rule:nonzero;"/>
            </g>
            <g transform="matrix(100,0,0,100,561.164,267.369)">
                <path d="M0.174,-0L0.174,-0.67L0.206,-0.636L0.009,-0.636L0.009,-0.7L0.246,-0.7L0.246,-0L0.174,-0Z" style="fill-rule:nonzero;"/>
            </g>
            <g transform="matrix(100,0,0,100,597.234,267.369)">
                <path d="M0.106,0.005C0.092,0.005 0.079,-0.001 0.068,-0.011C0.058,-0.021 0.053,-0.034 0.053,-0.05C0.053,-0.066 0.058,-0.079 0.068,-0.089C0.079,-0.099 0.092,-0.104 0.106,-0.104C0.121,-0.104 0.133,-0.099 0.144,-0.089C0.154,-0.079 0.16,-0.066 0.16,-0.05C0.16,-0.034 0.154,-0.021 0.144,-0.011C0.133,-0.001 0.121,0.005 0.106,0.005Z" style="fill-rule:nonzero;"/>
            </g>
            <g transform="matrix(100,0,0,100,617.437,267.369)">
                <path d="M0.175,-0L0.477,-0.668L0.499,-0.636L0.066,-0.636L0.103,-0.671L0.103,-0.505L0.032,-0.505L0.032,-0.7L0.546,-0.7L0.546,-0.649L0.253,-0L0.175,-0Z" style="fill-rule:nonzero;"/>
            </g>
        </g>
        <g id="Peace-Strichmännchen" serif:id="Peace Strichmännchen">
            <g transform="matrix(1,0,0,1,8.79679,43.1171)">
                <path d="M234.728,150.488L236.841,156.296" style="fill:none;stroke:black;stroke-width:2.08px;"/>
            </g>
            <g transform="matrix(1,0,0,1,8.79679,43.1171)">
                <path d="M239.164,156.296L239.375,147.954" style="fill:none;stroke:black;stroke-width:2.08px;"/>
            </g>
            <g transform="matrix(1,0,0,1,8.79679,43.1171)">
                <path d="M284.502,133.403L284.502,127.149" style="fill:none;stroke:black;stroke-width:2.08px;"/>
            </g>
            <g transform="matrix(1,0,0,1,8.79679,43.1171)">
                <path d="M282.146,134.542L279.294,126.304" style="fill:none;stroke:black;stroke-width:2.08px;"/>
            </g>
            <g transform="matrix(1,0,0,1,8.79679,43.1171)">
                <path d="M244.972,126.38C244.972,126.38 250.041,133.07 255.005,123.882" style="fill:none;stroke:black;stroke-width:2.08px;"/>
            </g>
            <g transform="matrix(1,0,0,1,8.79679,43.1171)">
                <path d="M261.959,155.208C262.606,180.487 261.656,216.816 261.656,216.816" style="fill:none;stroke:black;stroke-width:2.08px;"/>
            </g>
            <g transform="matrix(1.35135,0,0,1.45455,-74.5516,-11.4649)">
                <ellipse cx="240.378" cy="119.5" rx="1.954" ry="1.742"/>
            </g>
            <g transform="matrix(1.18919,0,0,1.22258,-38.9507,23.3997)">
                <ellipse cx="240.378" cy="119.5" rx="1.954" ry="1.742" style="fill:rgb(255,204,211);"/>
            </g>
            <g transform="matrix(1.05888,0,0,1.1306,14.9199,32.4213)">
                <ellipse cx="240.378" cy="119.5" rx="1.954" ry="1.742" style="fill:rgb(255,204,211);"/>
            </g>
            <g transform="matrix(1,0,0,1,21.1456,40.2657)">
                <ellipse cx="243.651" cy="120.539" rx="2.586" ry="2.465"/>
            </g>
            <g transform="matrix(1.63291,0,0,1.70679,-104.561,-25.0066)">
                <ellipse cx="243.651" cy="120.539" rx="2.586" ry="2.465"/>
            </g>
            <g transform="matrix(1.63291,0,0,1.70679,-150.955,-3.20213)">
                <ellipse cx="243.651" cy="120.539" rx="2.586" ry="2.465"/>
            </g>
            <g transform="matrix(1,0,0,1,8.79679,43.1171)">
                <path d="M262.185,155.208C262.185,155.208 256.697,193.477 238.108,160.844" style="fill:none;stroke:black;stroke-width:2.08px;"/>
            </g>
            <g transform="matrix(1,0,0,1,8.79679,43.1171)">
                <path d="M262.185,155.208C262.185,155.208 285.523,188.097 284.467,137.611" style="fill:none;stroke:black;stroke-width:2.08px;"/>
            </g>
            <g transform="matrix(1,0,0,1,8.47997,43.1171)">
                <path d="M259.753,90.933C259.753,90.933 236.097,92.095 231.133,122.298C226.17,152.501 259.119,155.247 259.753,155.142C260.386,155.036 291.118,158.627 295.131,125.044C299.144,91.461 264.927,90.194 259.753,90.933Z" style="fill:none;stroke:black;stroke-width:2.08px;"/>
            </g>
        </g>
        <g id="Objektiv2-Strichmännchen" serif:id="Objektiv2 Strichmännchen" transform="matrix(1,0,0,1,200.851,-18.6705)">
            <g transform="matrix(1.61291,0,0,1,-133.807,39.4752)">
                <path d="M248.222,128.753C247.595,128.872 251.126,134.063 254.076,128.753" style="fill:none;stroke:black;stroke-width:1.55px;"/>
            </g>
            <g transform="matrix(1,0,0,1,8.79679,43.1171)">
                <path d="M261.959,155.208C262.606,180.487 261.656,216.816 261.656,216.816" style="fill:none;stroke:black;stroke-width:2.08px;"/>
            </g>
            <g transform="matrix(1.35135,0,0,1.45455,-61.0412,-13.4725)">
                <ellipse cx="240.378" cy="119.5" rx="1.954" ry="1.742"/>
            </g>
            <g transform="matrix(2.12267,0,0,0.591563,-257.519,96.7577)">
                <ellipse cx="240.378" cy="119.5" rx="1.954" ry="1.742" style="fill:rgb(255,204,211);"/>
            </g>
            <g transform="matrix(2.12267,0,0,0.591563,-222.153,96.7577)">
                <ellipse cx="240.378" cy="119.5" rx="1.954" ry="1.742" style="fill:rgb(255,204,211);"/>
            </g>
            <g transform="matrix(1,0,0,1,35.3546,39.8749)">
                <ellipse cx="243.651" cy="120.539" rx="2.586" ry="2.465"/>
            </g>
            <g transform="matrix(1,0,0,1,8.79679,43.1171)">
                <path d="M262.185,155.208C262.185,155.208 253.443,168.088 254.704,202.864" style="fill:none;stroke:black;stroke-width:2.08px;"/>
            </g>
            <g transform="matrix(1,0,0,1,8.79679,43.1171)">
                <path d="M262.185,155.208C262.077,154.738 270.772,206.387 282.602,172.479" style="fill:none;stroke:black;stroke-width:2.08px;"/>
            </g>
            <g transform="matrix(1,0,0,1,8.47997,43.1171)">
                <path d="M259.753,90.933C259.753,90.933 236.097,92.095 231.133,122.298C226.17,152.501 259.119,155.247 259.753,155.142C260.386,155.036 291.118,158.627 295.131,125.044C299.144,91.461 264.927,90.194 259.753,90.933Z" style="fill:none;stroke:black;stroke-width:2.08px;"/>
            </g>
            <g id="Objektiv" transform="matrix(0.342436,0,0,0.342436,254.286,79.0945)">
                <path d="M124.186,393.417C106.67,405.122 92.421,393.417 92.421,393.417L92.421,381.707C92.421,381.707 106.241,392.173 124.186,381.707L124.186,393.417" style="fill:rgb(230,142,81);stroke:black;stroke-width:2.43px;"/>
                <g transform="matrix(1.03708,0,0,0.744013,-3.50355,100.812)">
                    <path d="M98.715,383.513L98.715,393.816C96.992,393.803 95.541,393.227 94.48,391.847L94.48,381.133C95.853,382.108 97.259,382.929 98.715,383.513Z" style="fill:white;"/>
                </g>
                <path d="M125.894,360.42L125.894,376.442" style="fill:none;stroke:black;stroke-width:2.43px;"/>
                <path d="M95.88,367.145L95.88,379.544" style="fill:none;stroke:black;stroke-width:2.43px;"/>
                <path d="M121.423,367.145L121.423,379.544" style="fill:none;stroke:black;stroke-width:2.43px;"/>
                <path d="M116.915,368.929L116.915,381.324" style="fill:none;stroke:black;stroke-width:2.43px;"/>
                <g transform="matrix(1,0,0,0.945104,0,20.2527)">
                    <path d="M100.083,368.929L100.083,381.324" style="fill:none;stroke:black;stroke-width:2.5px;"/>
                </g>
                <path d="M104.317,369.813L104.317,381.707" style="fill:none;stroke:black;stroke-width:2.43px;"/>
                <path d="M112.625,369.813L112.625,381.707" style="fill:none;stroke:black;stroke-width:2.43px;"/>
                <path d="M108.432,370.221L108.432,381.707" style="fill:none;stroke:black;stroke-width:2.43px;"/>
                <g transform="matrix(1.34574,0,0,1.14714,-37.6598,-55.0808)">
                    <ellipse cx="108.519" cy="362.924" rx="13.015" ry="7.469" style="fill:none;stroke:black;stroke-width:1.95px;"/>
                </g>
                <g transform="matrix(0.983904,0,0,0.902239,2.02636,37.3776)">
                    <path d="M90.291,376.233C90.291,376.233 108.225,389.77 125.894,376.233" style="fill:none;stroke:black;stroke-width:2.58px;"/>
                </g>
                <path d="M90.864,360.42L90.864,376.83" style="fill:none;stroke:black;stroke-width:2.43px;"/>
                <g transform="matrix(0.878873,0,0,0.639285,12.9889,129.11)">
                    <ellipse cx="108.519" cy="362.924" rx="13.015" ry="7.469" style="stroke:black;stroke-width:3.17px;"/>
                </g>
                <g transform="matrix(0.186018,0,0,0.231219,82.2416,275.48)">
                    <ellipse cx="108.519" cy="362.924" rx="13.015" ry="7.469" style="fill:white;"/>
                </g>
            </g>
        </g>
        <g id="Kamera-Strichmännchen" serif:id="Kamera Strichmännchen">
            <g id="Peace-Strichmännchen1" serif:id="Peace Strichmännchen" transform="matrix(1,0,0,1,-133.044,1.39902)">
                <g transform="matrix(1.03009,0,0,1,-0.409623,43.1171)">
                    <path d="M259.753,90.933C259.753,90.933 227.688,91.871 231.133,122.298C234.542,152.399 259.119,155.247 259.753,155.142C260.386,155.036 298.361,158.716 295.131,125.044C291.968,92.077 272.901,90.81 259.753,90.933Z" style="fill:none;stroke:black;stroke-width:2.05px;"/>
                </g>
                <g transform="matrix(1,0,0,1,8.79679,43.1171)">
                    <path d="M261.959,155.208C262.606,180.487 261.656,216.816 261.656,216.816" style="fill:none;stroke:black;stroke-width:2.08px;"/>
                </g>
                <g transform="matrix(1,0,0,1,8.79679,43.1171)">
                    <path d="M262.185,155.208C262.185,155.208 232.118,183.684 239.452,140.106" style="fill:none;stroke:black;stroke-width:2.08px;"/>
                </g>
                <g transform="matrix(1,0,0,1,8.79679,43.1171)">
                    <path d="M262.185,155.208C262.185,155.208 295.848,192.321 287.495,139.242" style="fill:none;stroke:black;stroke-width:2.08px;"/>
                </g>
                <g transform="matrix(1.0886,0,0,1.86698,5.1725,-52.9377)">
                    <ellipse cx="240.378" cy="119.5" rx="1.954" ry="1.742"/>
                </g>
                <g transform="matrix(0.781672,0,0,1.18739,85.6367,26.712)">
                    <ellipse cx="243.651" cy="120.539" rx="2.586" ry="2.465"/>
                </g>
                <g transform="matrix(1.63291,0,0,1.70679,-148.074,-24.8041)">
                    <ellipse cx="243.651" cy="120.539" rx="2.586" ry="2.465"/>
                </g>
                <g transform="matrix(1.63291,0,0,1.70679,-104.129,-25.9509)">
                    <ellipse cx="243.651" cy="120.539" rx="2.586" ry="2.465"/>
                </g>
            </g>
            <g id="Camera" transform="matrix(1,0,0,1,125.124,-1.40087)">
                <g transform="matrix(1,0,0,1,-46.0102,-8.56152)">
                    <path d="M54.289,173.804C57.603,173.511 60.777,173.553 63.561,173.804C65.916,174.016 66.729,178.375 69.115,179.567C71.774,180.895 78.699,178.615 79.515,181.772C79.949,183.455 80.267,191.332 80.494,195.491C80.891,202.749 81.424,207.651 76.466,207.799C71.596,207.944 59.318,207.682 50.112,207.799C44.66,207.869 38.41,208.84 37.793,205.962C37.378,204.027 37.883,200.317 37.793,196.728C37.691,192.652 37.857,188.405 37.869,185.33C37.874,184.158 37.856,183.155 37.793,182.398C37.52,179.135 44.691,179.788 48.401,179.567C51.142,179.404 51.744,174.028 54.289,173.804Z" style="fill:rgb(230,142,81);stroke:black;stroke-width:2.08px;"/>
                </g>
                <g transform="matrix(2.22268,0,0,2.22268,-130.473,-254.69)">
                    <circle cx="64.469" cy="197.223" r="5.252" style="fill:white;stroke:black;stroke-width:0.94px;"/>
                </g>
                <g transform="matrix(1.41848,0,0,1.41848,-78.674,-96.0373)">
                    <circle cx="64.469" cy="197.223" r="5.252" style="fill:white;stroke:black;stroke-width:1.47px;"/>
                </g>
                <g transform="matrix(1,0,0,1,-46.0102,-8.56152)">
                    <path d="M55.25,192.233C55.25,192.233 54.802,194.978 58.785,196.022" style="fill:none;stroke:black;stroke-width:2.08px;"/>
                </g>
                <g transform="matrix(1,0,0,1,-46.0102,-8.56152)">
                    <path d="M42.417,179.76C42.244,178.894 41.898,177.163 42.763,176.644C43.628,176.124 46.737,176.236 47.607,176.644C48.355,176.994 48.107,178.392 47.983,179.091" style="fill:white;stroke:black;stroke-width:2.08px;"/>
                </g>
            </g>
        </g>
        <g id="Bild-Stichmännchen" serif:id="Bild Stichmännchen">
            <g transform="matrix(1.03009,0,0,1,132.408,25.9714)">
                <path d="M259.753,92.215C259.753,92.215 233.219,94.617 236.665,125.044C240.073,155.145 259.119,155.247 259.753,155.142C260.386,155.036 298.361,158.716 295.131,125.044C291.968,92.077 272.901,92.092 259.753,92.215Z" style="fill:none;stroke:black;stroke-width:2.05px;"/>
            </g>
            <g transform="matrix(1,0,0,1,141.615,25.9714)">
                <path d="M261.959,155.208C262.606,180.487 261.656,216.816 261.656,216.816" style="fill:none;stroke:black;stroke-width:2.08px;"/>
            </g>
            <g transform="matrix(1,0,0,1,141.615,25.9714)">
                <path d="M262.185,155.208C262.185,155.208 241.573,194.646 268.556,180.088" style="fill:none;stroke:black;stroke-width:2.08px;"/>
            </g>
            <g transform="matrix(1,0,0,1,141.615,25.9714)">
                <path d="M262.185,155.208C262.185,155.208 272.899,174.422 294.373,174.011" style="fill:none;stroke:black;stroke-width:2.08px;"/>
            </g>
            <g transform="matrix(1.0886,0,0,1.86698,140.985,-63.7183)">
                <ellipse cx="240.378" cy="119.5" rx="1.954" ry="1.742"/>
            </g>
            <g transform="matrix(0.781672,0,0,1.18739,221.86,14.9768)">
                <ellipse cx="243.651" cy="120.539" rx="2.586" ry="2.465"/>
            </g>
            <g transform="matrix(0.155007,0.99133,-0.885871,0.138517,477.24,-295.393)">
                <path d="M486.115,131.625C486.115,131.625 489.759,161.407 488.878,161.253C489.759,161.407 472.425,158.235 472.425,158.235L469.946,128.796L486.115,131.625Z" style="fill:rgb(255,204,211);stroke:black;stroke-width:2.19px;"/>
            </g>
            <path d="M404.915,171.498C404.915,171.498 411.276,177.561 408.677,169.954" style="fill:rgb(255,204,211);stroke:black;stroke-width:2.08px;"/>
            <path d="M404.915,171.498C404.915,171.498 406.482,169.774 415.624,168.41" style="fill:none;stroke:black;stroke-width:2.08px;"/>
            <g transform="matrix(0.561112,0,0,0.783654,183.088,45.2728)">
                <ellipse cx="450.712" cy="195.385" rx="5.167" ry="4.601"/>
            </g>
            <g transform="matrix(0.561112,0,0,0.783654,158.409,52.484)">
                <ellipse cx="450.712" cy="195.385" rx="5.167" ry="4.601"/>
            </g>
        </g>
        <g id="Objektiv-Strichmännchen" serif:id="Objektiv Strichmännchen" transform="matrix(1,0,0,1,-201.582,15.5724)">
            <g transform="matrix(1.03009,0,0,1,132.408,25.9714)">
                <path d="M263.006,95.544C263.006,95.544 236.076,94.617 239.521,125.044C242.93,155.145 259.119,155.247 259.753,155.142C260.386,155.036 299.61,158.223 293.166,125.044C286.944,93.011 276.154,95.421 263.006,95.544Z" style="fill:none;stroke:black;stroke-width:2.05px;"/>
            </g>
            <g transform="matrix(1,0,0,1,141.615,25.9714)">
                <path d="M261.959,155.208C262.606,180.487 261.656,216.816 261.656,216.816" style="fill:none;stroke:black;stroke-width:2.08px;"/>
            </g>
            <g transform="matrix(1,0,0,1,141.615,25.9714)">
                <path d="M262.185,155.208C262.185,155.208 275.627,194.606 229.926,171.057" style="fill:none;stroke:black;stroke-width:2.08px;"/>
            </g>
            <g transform="matrix(1,0,0,1,141.615,25.9714)">
                <path d="M262.185,155.208C262.185,155.208 262.94,184.951 229.926,171.119" style="fill:none;stroke:black;stroke-width:2.08px;"/>
            </g>
            <g transform="matrix(1.25322,0,0,1.58404,96.0888,-26.4462)">
                <ellipse cx="240.378" cy="119.5" rx="1.954" ry="1.742"/>
            </g>
            <g transform="matrix(1.25322,0,0,1.58404,105.731,-26.4462)">
                <ellipse cx="240.378" cy="119.5" rx="1.954" ry="1.742"/>
            </g>
            <g id="Objektiv1" serif:id="Objektiv" transform="matrix(0.342436,0,0,0.342436,338.611,63.3695)">
                <path d="M124.186,393.417C106.67,405.122 92.421,393.417 92.421,393.417L92.421,381.707C92.421,381.707 106.241,392.173 124.186,381.707L124.186,393.417" style="stroke:black;stroke-width:2.43px;"/>
                <g transform="matrix(1.03708,0,0,0.951532,-3.50355,19.0874)">
                    <path d="M98.715,383.252L98.715,393.816C96.992,393.803 95.541,393.227 94.48,391.847L94.48,381.133L98.715,383.252Z" style="fill:white;"/>
                </g>
                <path d="M125.894,360.42L125.894,376.442" style="fill:none;stroke:black;stroke-width:2.43px;"/>
                <path d="M95.88,367.145L95.88,379.544" style="fill:none;stroke:black;stroke-width:2.43px;"/>
                <path d="M121.423,367.145L121.423,379.544" style="fill:none;stroke:black;stroke-width:2.43px;"/>
                <path d="M116.915,368.929L116.915,381.324" style="fill:none;stroke:black;stroke-width:2.43px;"/>
                <g transform="matrix(1,0,0,0.945104,0,20.2527)">
                    <path d="M100.083,368.929L100.083,381.324" style="fill:none;stroke:black;stroke-width:2.5px;"/>
                </g>
                <path d="M104.317,369.813L104.317,381.707" style="fill:none;stroke:black;stroke-width:2.43px;"/>
                <path d="M112.625,369.813L112.625,381.707" style="fill:none;stroke:black;stroke-width:2.43px;"/>
                <path d="M108.432,370.221L108.432,381.707" style="fill:none;stroke:black;stroke-width:2.43px;"/>
                <g transform="matrix(1.34574,0,0,1.14714,-37.6598,-55.0808)">
                    <ellipse cx="108.519" cy="362.924" rx="13.015" ry="7.469" style="fill:none;stroke:black;stroke-width:1.95px;"/>
                </g>
                <g transform="matrix(0.983904,0,0,0.902239,2.02636,37.3776)">
                    <path d="M90.291,376.233C90.291,376.233 108.225,389.77 125.894,376.233" style="fill:none;stroke:black;stroke-width:2.58px;"/>
                </g>
                <path d="M90.864,360.42L90.864,376.83" style="fill:none;stroke:black;stroke-width:2.43px;"/>
                <g transform="matrix(0.878873,0,0,0.639285,12.9889,129.11)">
                    <ellipse cx="108.519" cy="362.924" rx="13.015" ry="7.469" style="stroke:black;stroke-width:3.17px;"/>
                </g>
                <g transform="matrix(0.186018,0,0,0.231219,82.2416,275.48)">
                    <ellipse cx="108.519" cy="362.924" rx="13.015" ry="7.469" style="fill:white;"/>
                </g>
            </g>
            <g transform="matrix(1,0,0,1,152.363,45.3695)">
                <path d="M244.972,126.38C244.972,126.38 248.865,131.825 254.614,126.38" style="fill:none;stroke:black;stroke-width:2.08px;"/>
            </g>
        </g>
        <g id="Herz-Strichmännchen" serif:id="Herz Strichmännchen" transform="matrix(1,0,0,1,-227.627,-18.6705)">
            <g transform="matrix(1.03009,0,0,1,-0.409623,43.1171)">
                <path d="M262.485,94.085C262.485,94.085 238.306,95.023 237.433,122.113C236.455,152.401 259.119,155.247 259.753,155.142C260.386,155.036 294.03,158.861 295.131,125.044C296.107,95.043 268.614,93.405 262.485,94.085Z" style="fill:none;stroke:black;stroke-width:2.05px;"/>
            </g>
            <g transform="matrix(1,0,0,1,8.79679,43.1171)">
                <path d="M261.959,155.208C256.842,181.768 261.656,216.816 261.656,216.816" style="fill:none;stroke:black;stroke-width:2.08px;"/>
            </g>
            <g transform="matrix(1,0,0,1,8.79679,43.1171)">
                <path d="M262.185,155.208C262.185,155.208 243.648,167.03 242.228,209.709" style="fill:none;stroke:black;stroke-width:2.08px;"/>
            </g>
            <g transform="matrix(1,0,0,1,8.79679,43.1171)">
                <path d="M262.185,155.208C262.185,155.208 277.059,195.737 299.024,158.458" style="fill:none;stroke:black;stroke-width:2.08px;"/>
            </g>
            <g transform="matrix(1,0,0,1,228.801,22.9165)">
                <path d="M79.02,169.812C80.53,172.243 79.958,174.167 80.847,174.167C81.503,174.167 81.204,173.181 82.396,171.646C82.822,171.098 83.438,170.48 84.354,169.812" style="fill:none;stroke:rgb(255,5,0);stroke-width:3.75px;"/>
            </g>
            <g transform="matrix(1.0886,0,0,1.44306,8.29576,-12.57)">
                <ellipse cx="240.378" cy="119.5" rx="1.954" ry="1.742"/>
            </g>
            <g transform="matrix(0.781672,0,0,0.818631,89.4693,56.665)">
                <ellipse cx="243.651" cy="120.539" rx="2.586" ry="2.465"/>
            </g>
            <g transform="matrix(0.980204,-0.197992,0.197992,0.980204,206.205,24.1114)">
                <path d="M33.158,157.917C33.158,157.917 47.089,164.962 54.319,151.799" style="fill:none;stroke:black;stroke-width:2.08px;"/>
            </g>
        </g>
        <g id="KameraKopf-Strichmännchen" serif:id="KameraKopf Strichmännchen" transform="matrix(1,0,0,1,66.4401,-3.93259)">
            <g transform="matrix(1.03009,0,0,1,-0.409623,43.1171)">
                <path d="M263.464,97.716C263.464,97.716 238.77,96.222 237.896,123.312C236.919,153.6 259.119,155.247 259.753,155.142C260.386,155.036 292.078,160.276 293.179,126.459C294.155,96.459 269.593,97.037 263.464,97.716Z" style="fill:none;stroke:black;stroke-width:2.05px;"/>
            </g>
            <g transform="matrix(1,0,0,1,8.79679,43.1171)">
                <path d="M261.959,155.208C256.842,181.768 261.656,216.816 261.656,216.816" style="fill:none;stroke:black;stroke-width:2.08px;"/>
            </g>
            <g transform="matrix(1,0,0,1,8.79679,43.1171)">
                <path d="M262.185,155.208C262.185,155.208 254.004,159.399 252.584,202.078" style="fill:none;stroke:black;stroke-width:2.08px;"/>
            </g>
            <g transform="matrix(1,0,0,1,8.79679,43.1171)">
                <path d="M262.185,155.208C262.185,155.208 264.079,180.499 268.904,202.078" style="fill:none;stroke:black;stroke-width:2.08px;"/>
            </g>
            <g transform="matrix(0.695586,0.151441,-0.13779,0.632888,265.861,54.0234)">
                <path d="M33.158,157.917C33.158,157.917 40.964,167.482 48.194,154.319" style="fill:none;stroke:black;stroke-width:3.06px;"/>
            </g>
        </g>
        <g id="Camera1" serif:id="Camera" transform="matrix(0.384912,0,0,0.384912,337.423,62.3973)">
            <g transform="matrix(1,0,0,1,-46.0102,-8.56152)">
                <path d="M54.289,173.804C57.603,173.511 60.777,173.553 63.561,173.804C65.916,174.016 66.729,178.375 69.115,179.567C71.774,180.895 78.699,178.615 79.515,181.772C79.949,183.455 80.267,191.332 80.494,195.491C80.891,202.749 81.424,207.651 76.466,207.799C71.596,207.944 59.318,207.682 50.112,207.799C44.66,207.869 38.41,208.84 37.793,205.962C37.378,204.027 37.883,200.317 37.793,196.728C37.691,192.652 37.857,188.405 37.869,185.33C37.874,184.158 37.856,183.155 37.793,182.398C37.52,179.135 44.691,179.788 48.401,179.567C51.142,179.404 51.744,174.028 54.289,173.804Z" style="fill:rgb(255,65,82);stroke:black;stroke-width:2.16px;"/>
            </g>
            <g transform="matrix(2.22268,0,0,2.22268,-130.473,-254.69)">
                <circle cx="64.469" cy="197.223" r="5.252" style="fill:white;stroke:black;stroke-width:0.97px;"/>
            </g>
            <g transform="matrix(1.41848,0,0,1.41848,-78.674,-96.0373)">
                <circle cx="64.469" cy="197.223" r="5.252" style="fill:white;stroke:black;stroke-width:1.53px;"/>
            </g>
            <g transform="matrix(1,0,0,1,-46.0102,-8.56152)">
                <path d="M55.25,192.233C55.25,192.233 54.802,194.978 58.785,196.022" style="fill:rgb(255,65,82);stroke:black;stroke-width:2.16px;"/>
            </g>
            <g transform="matrix(1,0,0,1,-46.0102,-8.56152)">
                <path d="M42.417,179.76C42.244,178.894 41.898,177.163 42.763,176.644C43.628,176.124 46.737,176.236 47.607,176.644C48.355,176.994 48.107,178.392 47.983,179.091" style="fill:white;stroke:black;stroke-width:2.16px;"/>
            </g>
        </g>
        <g transform="matrix(0.409708,0,0,0.813305,200.279,22.5571)">
            <ellipse cx="330.221" cy="152.671" rx="2.4" ry="3.46" style="stroke:black;stroke-width:1.29px;"/>
        </g>
        <g transform="matrix(0.409708,0,0,0.813305,204.772,21.3415)">
            <ellipse cx="330.221" cy="152.671" rx="2.4" ry="3.46" style="stroke:black;stroke-width:1.29px;"/>
        </g>
    </g>
</svg>
